<svg width="118" height="74" viewBox="0 0 118 74" fill="none" xmlns="http://www.w3.org/2000/svg">
<g clip-path="url(#clip0_308_515)">
<path d="M0 0H112L118 6V74H6L0 68V0Z" fill="black"/>
<rect x="2.5" y="2.5" width="107" height="63" fill="#212121"/>
<rect x="2.5" y="2.5" width="107" height="63" stroke="black" stroke-width="5"/>
<path d="M33.9297 43H28.8496L26.582 35.916L25.7559 33.0332L24.9648 35.9863L22.7324 43H17.8633L16.5801 20.0254H20.3945L20.9395 34.7559L21.0801 38.7812L22.1172 35.1953L24.6484 27.0215H27.373L30.0449 35.6875L30.9062 38.7461L30.9766 35.1602L31.5566 20.0254H35.2305L33.9297 43ZM54.1094 27.3379C54.1094 28.5332 53.9102 29.6406 53.5117 30.6602C53.1133 31.668 52.5215 32.541 51.7363 33.2793C50.9512 34.0176 49.9727 34.5918 48.8008 35.002C47.6289 35.4121 46.2695 35.6172 44.7227 35.6172H42.5254V43H38.166V20.0254H44.8984C46.3867 20.0254 47.6992 20.1895 48.8359 20.5176C49.9844 20.834 50.9453 21.3027 51.7188 21.9238C52.5039 22.5449 53.0957 23.3125 53.4941 24.2266C53.9043 25.1289 54.1094 26.166 54.1094 27.3379ZM49.5742 27.6367C49.5742 27.0273 49.4746 26.4766 49.2754 25.9844C49.0879 25.4805 48.7949 25.0527 48.3965 24.7012C48.0098 24.3496 47.5176 24.0801 46.9199 23.8926C46.3223 23.7051 45.6133 23.6113 44.793 23.6113H42.5254V32.0312H44.9336C45.6836 32.0312 46.3457 31.9316 46.9199 31.7324C47.4941 31.5215 47.9746 31.2227 48.3613 30.8359C48.7598 30.4492 49.0586 29.9863 49.2578 29.4473C49.4688 28.9082 49.5742 28.3047 49.5742 27.6367ZM70.7734 43L70.3516 30.0098L70.1934 24.8242L69.0859 28.3398L66.5371 36.1621H63.8301L61.5273 28.3398L60.5605 24.8242L60.4375 29.9043L60.0508 43H56.377L57.502 20.0254H62.3887L64.4102 26.5469L65.377 30.2207L66.3438 26.7578L68.4707 20.0254H73.4453L74.5879 43H70.7734Z" fill="white"/>
<path d="M75.3789 50.207V46.8145H95.1719V50.207H75.3789Z" fill="#8C8C8C"/>
</g>
<defs>
<clipPath id="clip0_308_515">
<rect width="118" height="74" fill="white"/>
</clipPath>
</defs>
</svg>
